<?xml version="1.0" encoding="utf-8"?>
<!-- Generator: Adobe Illustrator 24.3.0, SVG Export Plug-In . SVG Version: 6.00 Build 0)  -->
<svg version="1.1" id="Layer_1" xmlns="http://www.w3.org/2000/svg" xmlns:xlink="http://www.w3.org/1999/xlink" x="0px" y="0px"
	 viewBox="0 0 180 180" enable-background="new 0 0 180 180" xml:space="preserve">
<g>
	<g id="XMLID_22_">
		<path fill="#FFDB76" d="M154.622,90c0,35.69-28.932,64.623-64.621,64.623c-35.691,0-64.623-28.934-64.623-64.623
			c0-35.689,28.932-64.623,64.623-64.623C125.69,25.377,154.622,54.311,154.622,90z"/>
	</g>
	<g>
		<g>
			<path fill="#333333" d="M40.642,107.816h-8.12c-0.212,0-0.384-0.172-0.384-0.383c0-0.213,0.172-0.385,0.384-0.385h8.12
				c0.212,0,0.384,0.172,0.384,0.385C41.025,107.644,40.854,107.816,40.642,107.816z"/>
		</g>
		<g>
			<path fill="#333333" d="M40.185,104.777h-1.312c-0.212,0-0.384-0.17-0.384-0.383c0-0.213,0.172-0.385,0.384-0.385h1.312
				c0.211,0,0.384,0.172,0.384,0.385C40.568,104.607,40.396,104.777,40.185,104.777z"/>
		</g>
		<g>
			<path fill="#333333" d="M47.542,104.777h-4.945c-0.212,0-0.383-0.17-0.383-0.383c0-0.213,0.171-0.385,0.383-0.385h4.945
				c0.211,0,0.384,0.172,0.384,0.385C47.926,104.607,47.753,104.777,47.542,104.777z"/>
		</g>
		<g>
			<path fill="#333333" d="M42.514,100.039h-5.97c-0.211,0-0.384-0.172-0.384-0.383c0-0.213,0.173-0.385,0.384-0.385h5.97
				c0.212,0,0.383,0.172,0.383,0.385C42.896,99.867,42.726,100.039,42.514,100.039z"/>
		</g>
	</g>
	<g>
		<g>
			<path fill="#333333" d="M133.592,52.008h-9.78c-0.212,0-0.384-0.174-0.384-0.385c0-0.213,0.172-0.383,0.384-0.383h9.78
				c0.213,0,0.384,0.17,0.384,0.383C133.976,51.834,133.805,52.008,133.592,52.008z"/>
		</g>
		<g>
			<path fill="#333333" d="M125.941,55.047h-1.579c-0.212,0-0.384-0.174-0.384-0.385c0-0.211,0.172-0.385,0.384-0.385h1.579
				c0.213,0,0.385,0.174,0.385,0.385C126.326,54.873,126.154,55.047,125.941,55.047z"/>
		</g>
		<g>
			<path fill="#333333" d="M121.456,55.047h-5.955c-0.213,0-0.385-0.174-0.385-0.385c0-0.211,0.172-0.385,0.385-0.385h5.955
				c0.212,0,0.384,0.174,0.384,0.385C121.84,54.873,121.668,55.047,121.456,55.047z"/>
		</g>
		<g>
			<path fill="#333333" d="M128.747,59.785h-7.19c-0.212,0-0.384-0.174-0.384-0.385c0-0.213,0.172-0.383,0.384-0.383h7.19
				c0.212,0,0.384,0.17,0.384,0.383C129.131,59.611,128.959,59.785,128.747,59.785z"/>
		</g>
	</g>
	<g>
		<g>
			<path fill="#333333" d="M149.625,99.672h-8.793c-0.212,0-0.384-0.172-0.384-0.383c0-0.213,0.172-0.385,0.384-0.385h8.793
				c0.212,0,0.383,0.172,0.383,0.385C150.008,99.5,149.837,99.672,149.625,99.672z"/>
		</g>
		<g>
			<path fill="#333333" d="M142.747,102.711h-1.42c-0.212,0-0.384-0.172-0.384-0.385c0-0.211,0.172-0.383,0.384-0.383h1.42
				c0.212,0,0.384,0.172,0.384,0.383C143.131,102.539,142.959,102.711,142.747,102.711z"/>
		</g>
		<g>
			<path fill="#333333" d="M138.714,102.711h-5.354c-0.212,0-0.385-0.172-0.385-0.385c0-0.211,0.173-0.383,0.385-0.383h5.354
				c0.213,0,0.385,0.172,0.385,0.383C139.099,102.539,138.927,102.711,138.714,102.711z"/>
		</g>
		<g>
			<path fill="#333333" d="M145.269,107.449h-6.464c-0.212,0-0.384-0.172-0.384-0.383c0-0.213,0.172-0.385,0.384-0.385h6.464
				c0.213,0,0.384,0.172,0.384,0.385C145.652,107.277,145.481,107.449,145.269,107.449z"/>
		</g>
	</g>
	<g>
		<g>
			<path fill="#333333" d="M91.763,35.588H78.146c-0.212,0-0.384-0.17-0.384-0.383c0-0.213,0.172-0.385,0.384-0.385h13.617
				c0.211,0,0.383,0.172,0.383,0.385C92.146,35.418,91.974,35.588,91.763,35.588z"/>
		</g>
		<g>
			<path fill="#333333" d="M81.111,38.629h-2.199c-0.212,0-0.384-0.172-0.384-0.385c0-0.213,0.172-0.385,0.384-0.385h2.199
				c0.212,0,0.385,0.172,0.385,0.385C81.496,38.457,81.323,38.629,81.111,38.629z"/>
		</g>
		<g>
			<path fill="#333333" d="M74.865,38.629h-8.291c-0.212,0-0.384-0.172-0.384-0.385c0-0.213,0.172-0.385,0.384-0.385h8.291
				c0.213,0,0.385,0.172,0.385,0.385C75.25,38.457,75.078,38.629,74.865,38.629z"/>
		</g>
		<g>
			<path fill="#333333" d="M85.017,43.365h-10.01c-0.213,0-0.384-0.17-0.384-0.383c0-0.213,0.171-0.385,0.384-0.385h10.01
				c0.212,0,0.384,0.172,0.384,0.385C85.4,43.195,85.229,43.365,85.017,43.365z"/>
		</g>
	</g>
	<g>
		<g>
			<path fill="#333333" d="M140.663,112.529h-3.174c-0.212,0-0.385-0.172-0.385-0.383c0-0.213,0.173-0.385,0.385-0.385h3.174
				c0.212,0,0.384,0.172,0.384,0.385C141.047,112.357,140.875,112.529,140.663,112.529z"/>
		</g>
		<g>
			<path fill="#333333" d="M139.076,114.117c-0.213,0-0.385-0.172-0.385-0.385v-3.174c0-0.211,0.172-0.383,0.385-0.383
				c0.212,0,0.383,0.172,0.383,0.383v3.174C139.459,113.945,139.288,114.117,139.076,114.117z"/>
		</g>
	</g>
	<g>
		<g>
			<path fill="#333333" d="M45.697,92.486h-3.176c-0.212,0-0.383-0.172-0.383-0.385c0-0.213,0.171-0.385,0.383-0.385h3.176
				c0.211,0,0.384,0.172,0.384,0.385C46.081,92.314,45.908,92.486,45.697,92.486z"/>
		</g>
		<g>
			<path fill="#333333" d="M44.11,94.072c-0.213,0-0.385-0.172-0.385-0.385v-3.174c0-0.211,0.172-0.383,0.385-0.383
				c0.212,0,0.384,0.172,0.384,0.383v3.174C44.494,93.9,44.322,94.072,44.11,94.072z"/>
		</g>
	</g>
	<g>
		<g>
			<rect x="49.584" y="83.926" fill="#4C4C4C" width="80.182" height="41.408"/>
		</g>
		<g>
			<g>
				<path fill="#BFBFBF" d="M98.447,126.795v-22.352c0-4.453-3.611-8.064-8.065-8.064h-1.414c-4.453,0-8.064,3.611-8.064,8.064
					v22.352H98.447z"/>
			</g>
			<g>
				<path fill="#A0A0A0" d="M97.443,113.627v-9.108c0-3.943-3.197-7.142-7.143-7.142h-1.253c-3.943,0-7.141,3.199-7.141,7.142v9.108
					H97.443z"/>
			</g>
			<g>
				<rect x="93.539" y="97.377" fill="#BFBFBF" width="0.424" height="16.357"/>
			</g>
			<g>
				<rect x="89.789" y="97.377" fill="#BFBFBF" width="0.423" height="16.357"/>
			</g>
			<g>
				<rect x="85.701" y="97.377" fill="#BFBFBF" width="0.423" height="16.357"/>
			</g>
			<g>
				<rect x="81.444" y="109.85" fill="#BFBFBF" width="16.461" height="0.371"/>
			</g>
			<g>
				<rect x="81.444" y="106.328" fill="#BFBFBF" width="16.461" height="0.371"/>
			</g>
			<g>
				<rect x="81.444" y="102.807" fill="#BFBFBF" width="16.461" height="0.371"/>
			</g>
			<g>
				<rect x="83.394" y="99.285" fill="#BFBFBF" width="12.564" height="0.371"/>
			</g>
		</g>
		<g>
			<g>
				<g opacity="0.1">
					<g>
						<polygon points="90.001,46.289 34.633,81.564 40.707,81.564 90.001,51.428 139.294,81.564 145.367,81.564 						"/>
					</g>
				</g>
				<g>
					<g>
						<polygon fill="#FFFFFF" points="90.001,45.904 34.633,81.18 40.707,81.18 90.001,51.045 139.294,81.18 145.367,81.18 						
							"/>
					</g>
				</g>
			</g>
		</g>
		<g>
			<g>
				<g opacity="0.15">
					<g>
						<rect x="42.811" y="80.262" width="94.957" height="3.855"/>
					</g>
				</g>
				<g>
					<g>
						<rect x="42.521" y="80.07" fill="#F2F2F2" width="94.958" height="3.855"/>
					</g>
				</g>
			</g>
		</g>
		<g>
			<g>
				<g opacity="0.15">
					<g>
						<rect x="42.811" y="81.568" width="94.957" height="1.244"/>
					</g>
				</g>
				<g>
					<g>
						<rect x="42.521" y="81.375" fill="#A0A0A0" width="94.958" height="1.246"/>
					</g>
				</g>
			</g>
		</g>
		<g>
			<rect x="47.394" y="125.334" fill="#F2F2F2" width="85.214" height="2.922"/>
		</g>
		<g>
			<polygon fill="#F2F2F2" points="90.001,128.256 39.422,128.256 39.422,131.176 90.001,131.176 140.579,131.176 140.579,128.256 
							"/>
		</g>
		<g>
			<polygon fill="#F2F2F2" points="90.001,131.176 34.633,131.176 34.633,134.094 90.001,134.094 145.367,134.094 145.367,131.176 
							"/>
		</g>
		<g>
			<polygon fill="#4C4C4C" points="90.001,134.053 34.633,134.053 34.633,137.684 90.001,137.684 145.367,137.684 145.367,134.053 
							"/>
		</g>
		<g>
			<rect x="39.422" y="130.385" fill="#D9DBDB" width="101.157" height="0.791"/>
		</g>
		<g>
			<rect x="47.395" y="127.465" fill="#D9DBDB" width="85.213" height="0.791"/>
		</g>
		<g>
			<polygon fill="#757575" points="90.001,51.045 42.521,80.07 137.48,80.07 			"/>
		</g>
		<g>
			<path fill="#B2B2B2" d="M90.001,61.906c-2.017,0-3.651,1.637-3.651,3.652c0,2.016,1.635,3.65,3.651,3.65s3.65-1.635,3.65-3.65
				C93.651,63.543,92.018,61.906,90.001,61.906z"/>
		</g>
		<g>
			<g>
				<g>
					<g>
						<g opacity="0.15">
							<g>
								<polygon points="54.268,83.926 49.872,83.926 49.872,121.598 54.268,121.598 58.538,121.598 58.538,83.926 								"/>
							</g>
						</g>
						<g>
							<g>
								<polygon fill="#F2F2F2" points="53.98,83.926 49.584,83.926 49.584,121.598 53.98,121.598 58.25,121.598 58.25,83.926 
																	"/>
							</g>
						</g>
					</g>
				</g>
				<g>
					<g>
						<g>
							<rect x="52.522" y="86.894" fill="#A0A0A0" width="0.475" height="34.703"/>
						</g>
					</g>
					<g>
						<g>
							<rect x="50.832" y="86.894" fill="#A0A0A0" width="0.476" height="34.703"/>
						</g>
					</g>
					<g>
						<g>
							<rect x="54.837" y="86.894" fill="#A0A0A0" width="0.476" height="34.703"/>
						</g>
					</g>
					<g>
						<g>
							<rect x="56.528" y="86.894" fill="#A0A0A0" width="0.475" height="34.703"/>
						</g>
					</g>
				</g>
			</g>
			<g>
				<path fill="#FFFFFF" d="M58.568,121.598H53.98h-4.589c-1.054,0-1.905,0.941-1.905,2.102v1.635h6.494h6.493v-1.635
					C60.474,122.539,59.621,121.598,58.568,121.598z"/>
			</g>
			<g>
				<g>
					<g>
						<polygon fill="#BFBFBF" points="53.965,83.926 53.87,83.926 48.173,83.926 48.173,86.894 53.87,86.894 53.965,86.894 
							59.661,86.894 59.661,83.926 						"/>
					</g>
					<g>
						<path fill="#FFFFFF" d="M45.203,86.894c0-1.639,1.329-2.969,2.97-2.969c1.642,0,2.971,1.33,2.971,2.969
							c0,1.641-1.329,2.971-2.971,2.971C46.532,89.865,45.203,88.535,45.203,86.894z"/>
					</g>
					<g>
						<g>
							<path fill="#A0A0A0" d="M48.173,88.617c-0.948,0-1.721-0.771-1.721-1.723c0-0.947,0.772-1.721,1.721-1.721
								c0.95,0,1.723,0.773,1.723,1.721C49.896,87.846,49.123,88.617,48.173,88.617z M48.173,85.648
								c-0.686,0-1.246,0.56-1.246,1.246c0,0.689,0.561,1.248,1.246,1.248c0.688,0,1.248-0.559,1.248-1.248
								C49.421,86.209,48.861,85.648,48.173,85.648z"/>
						</g>
					</g>
				</g>
				<g>
					<g>
						<path fill="#FFFFFF" d="M62.63,86.894c0-1.639-1.328-2.969-2.969-2.969s-2.97,1.33-2.97,2.969c0,1.641,1.329,2.971,2.97,2.971
							S62.63,88.535,62.63,86.894z"/>
					</g>
					<g>
						<g>
							<path fill="#A0A0A0" d="M59.661,88.617c-0.949,0-1.723-0.771-1.723-1.723c0-0.947,0.774-1.721,1.723-1.721
								c0.95,0,1.723,0.773,1.723,1.721C61.384,87.846,60.611,88.617,59.661,88.617z M59.661,85.648
								c-0.688,0-1.247,0.56-1.247,1.246c0,0.689,0.56,1.248,1.247,1.248c0.688,0,1.247-0.559,1.247-1.248
								C60.908,86.209,60.35,85.648,59.661,85.648z"/>
						</g>
					</g>
				</g>
			</g>
		</g>
		<g>
			<g>
				<g>
					<g opacity="0.15">
						<g>
							<polygon points="73.774,83.926 69.38,83.926 69.38,121.598 73.774,121.598 78.046,121.598 78.046,83.926 							"/>
						</g>
					</g>
					<g>
						<g>
							<polygon fill="#F2F2F2" points="73.486,83.926 69.091,83.926 69.091,121.598 73.486,121.598 77.758,121.598 77.758,83.926 
															"/>
						</g>
					</g>
				</g>
				<g>
					<g>
						<g>
							<rect x="72.029" y="86.894" fill="#A0A0A0" width="0.475" height="34.703"/>
						</g>
					</g>
					<g>
						<g>
							<rect x="70.34" y="86.894" fill="#A0A0A0" width="0.475" height="34.703"/>
						</g>
					</g>
					<g>
						<g>
							<rect x="74.345" y="86.894" fill="#A0A0A0" width="0.475" height="34.703"/>
						</g>
					</g>
					<g>
						<g>
							<rect x="76.035" y="86.894" fill="#A0A0A0" width="0.475" height="34.703"/>
						</g>
					</g>
				</g>
			</g>
			<g>
				<path fill="#FFFFFF" d="M78.075,121.598h-4.589h-4.588c-1.053,0-1.906,0.941-1.906,2.102v1.635h6.494h6.494v-1.635
					C79.98,122.539,79.128,121.598,78.075,121.598z"/>
			</g>
			<g>
				<g>
					<g>
						<rect x="67.681" y="83.926" fill="#BFBFBF" width="11.487" height="2.969"/>
					</g>
					<g>
						<path fill="#FFFFFF" d="M64.711,86.894c0-1.639,1.329-2.969,2.97-2.969c1.641,0,2.97,1.33,2.97,2.969
							c0,1.641-1.329,2.971-2.97,2.971C66.04,89.865,64.711,88.535,64.711,86.894z"/>
					</g>
					<g>
						<g>
							<path fill="#A0A0A0" d="M67.681,88.617c-0.949,0-1.722-0.771-1.722-1.723c0-0.947,0.772-1.721,1.722-1.721
								c0.949,0,1.723,0.773,1.723,1.721C69.403,87.846,68.63,88.617,67.681,88.617z M67.681,85.648
								c-0.688,0-1.247,0.56-1.247,1.246c0,0.689,0.559,1.248,1.247,1.248s1.247-0.559,1.247-1.248
								C68.928,86.209,68.368,85.648,67.681,85.648z"/>
						</g>
					</g>
				</g>
				<g>
					<g>
						<path fill="#FFFFFF" d="M82.138,86.894c0-1.639-1.328-2.969-2.97-2.969c-1.64,0-2.969,1.33-2.969,2.969
							c0,1.641,1.329,2.971,2.969,2.971C80.81,89.865,82.138,88.535,82.138,86.894z"/>
					</g>
					<g>
						<g>
							<path fill="#A0A0A0" d="M79.168,88.617c-0.95,0-1.723-0.771-1.723-1.723c0-0.947,0.772-1.721,1.723-1.721
								c0.949,0,1.722,0.773,1.722,1.721C80.89,87.846,80.117,88.617,79.168,88.617z M79.168,85.648
								c-0.688,0-1.246,0.56-1.246,1.246c0,0.689,0.559,1.248,1.246,1.248c0.688,0,1.248-0.559,1.248-1.248
								C80.416,86.209,79.856,85.648,79.168,85.648z"/>
						</g>
					</g>
				</g>
			</g>
		</g>
		<g>
			<g>
				<g>
					<g opacity="0.15">
						<g>
							<polygon points="106.541,83.926 102.146,83.926 102.146,121.598 106.541,121.598 110.812,121.598 110.812,83.926 							"/>
						</g>
					</g>
					<g>
						<g>
							<polygon fill="#F2F2F2" points="106.253,83.926 101.857,83.926 101.857,121.598 106.253,121.598 110.523,121.598 
								110.523,83.926 							"/>
						</g>
					</g>
				</g>
				<g>
					<g>
						<g>
							<rect x="104.795" y="86.894" fill="#A0A0A0" width="0.476" height="34.703"/>
						</g>
					</g>
					<g>
						<g>
							<rect x="103.105" y="86.894" fill="#A0A0A0" width="0.474" height="34.703"/>
						</g>
					</g>
					<g>
						<g>
							<rect x="107.11" y="86.894" fill="#A0A0A0" width="0.475" height="34.703"/>
						</g>
					</g>
					<g>
						<g>
							<rect x="108.801" y="86.894" fill="#A0A0A0" width="0.475" height="34.703"/>
						</g>
					</g>
				</g>
			</g>
			<g>
				<path fill="#FFFFFF" d="M110.841,121.598h-4.588h-4.589c-1.052,0-1.906,0.941-1.906,2.102v1.635h6.495h6.493v-1.635
					C112.746,122.539,111.894,121.598,110.841,121.598z"/>
			</g>
			<g>
				<g>
					<g>
						<rect x="100.447" y="83.926" fill="#BFBFBF" width="11.487" height="2.969"/>
					</g>
					<g>
						<path fill="#FFFFFF" d="M97.478,86.894c0-1.639,1.328-2.969,2.97-2.969c1.64,0,2.969,1.33,2.969,2.969
							c0,1.641-1.329,2.971-2.969,2.971C98.806,89.865,97.478,88.535,97.478,86.894z"/>
					</g>
					<g>
						<g>
							<path fill="#A0A0A0" d="M100.447,88.617c-0.95,0-1.724-0.771-1.724-1.723c0-0.947,0.773-1.721,1.724-1.721
								c0.949,0,1.722,0.773,1.722,1.721C102.169,87.846,101.396,88.617,100.447,88.617z M100.447,85.648
								c-0.688,0-1.248,0.56-1.248,1.246c0,0.689,0.56,1.248,1.248,1.248c0.688,0,1.246-0.559,1.246-1.248
								C101.693,86.209,101.135,85.648,100.447,85.648z"/>
						</g>
					</g>
				</g>
				<g>
					<g>
						<path fill="#FFFFFF" d="M114.904,86.894c0-1.639-1.329-2.969-2.97-2.969c-1.642,0-2.97,1.33-2.97,2.969
							c0,1.641,1.328,2.971,2.97,2.971C113.575,89.865,114.904,88.535,114.904,86.894z"/>
					</g>
					<g>
						<g>
							<path fill="#A0A0A0" d="M111.935,88.617c-0.95,0-1.723-0.771-1.723-1.723c0-0.947,0.772-1.721,1.723-1.721
								c0.948,0,1.721,0.773,1.721,1.721C113.655,87.846,112.883,88.617,111.935,88.617z M111.935,85.648
								c-0.688,0-1.247,0.56-1.247,1.246c0,0.689,0.559,1.248,1.247,1.248c0.688,0,1.246-0.559,1.246-1.248
								C113.181,86.209,112.622,85.648,111.935,85.648z"/>
						</g>
					</g>
				</g>
			</g>
		</g>
		<g>
			<g>
				<g>
					<g>
						<g opacity="0.15">
							<g>
								<polygon points="126.44,83.926 122.044,83.926 122.044,121.598 126.44,121.598 130.711,121.598 130.711,83.926 								"/>
							</g>
						</g>
						<g>
							<g>
								<polygon fill="#F2F2F2" points="126.152,83.926 121.757,83.926 121.757,121.598 126.152,121.598 130.423,121.598 
									130.423,83.926 								"/>
							</g>
						</g>
					</g>
				</g>
				<g>
					<g>
						<g>
							<rect x="124.694" y="86.894" fill="#A0A0A0" width="0.476" height="34.703"/>
						</g>
					</g>
					<g>
						<g>
							<rect x="123.005" y="86.894" fill="#A0A0A0" width="0.475" height="34.703"/>
						</g>
					</g>
					<g>
						<g>
							<rect x="127.01" y="86.894" fill="#A0A0A0" width="0.475" height="34.703"/>
						</g>
					</g>
					<g>
						<g>
							<rect x="128.7" y="86.894" fill="#A0A0A0" width="0.475" height="34.703"/>
						</g>
					</g>
				</g>
			</g>
			<g>
				<path fill="#FFFFFF" d="M130.74,121.598h-4.588h-4.588c-1.054,0-1.906,0.941-1.906,2.102v1.635h6.494h6.493v-1.635
					C132.646,122.539,131.794,121.598,130.74,121.598z"/>
			</g>
			<g>
				<g>
					<g>
						<rect x="120.346" y="83.926" fill="#BFBFBF" width="11.488" height="2.969"/>
					</g>
					<g>
						<path fill="#FFFFFF" d="M117.377,86.894c0-1.639,1.329-2.969,2.969-2.969c1.642,0,2.97,1.33,2.97,2.969
							c0,1.641-1.328,2.971-2.97,2.971C118.706,89.865,117.377,88.535,117.377,86.894z"/>
					</g>
					<g>
						<g>
							<path fill="#A0A0A0" d="M120.346,88.617c-0.949,0-1.722-0.771-1.722-1.723c0-0.947,0.772-1.721,1.722-1.721
								c0.949,0,1.723,0.773,1.723,1.721C122.068,87.846,121.295,88.617,120.346,88.617z M120.346,85.648
								c-0.687,0-1.246,0.56-1.246,1.246c0,0.689,0.56,1.248,1.246,1.248c0.688,0,1.248-0.559,1.248-1.248
								C121.594,86.209,121.034,85.648,120.346,85.648z"/>
						</g>
					</g>
				</g>
				<g>
					<g>
						<path fill="#FFFFFF" d="M134.803,86.894c0-1.639-1.328-2.969-2.969-2.969c-1.641,0-2.97,1.33-2.97,2.969
							c0,1.641,1.329,2.971,2.97,2.971C133.475,89.865,134.803,88.535,134.803,86.894z"/>
					</g>
					<g>
						<g>
							<path fill="#A0A0A0" d="M131.834,88.617c-0.95,0-1.723-0.771-1.723-1.723c0-0.947,0.772-1.721,1.723-1.721
								c0.949,0,1.722,0.773,1.722,1.721C133.556,87.846,132.783,88.617,131.834,88.617z M131.834,85.648
								c-0.688,0-1.247,0.56-1.247,1.246c0,0.689,0.559,1.248,1.247,1.248c0.688,0,1.247-0.559,1.247-1.248
								C133.081,86.209,132.521,85.648,131.834,85.648z"/>
						</g>
					</g>
				</g>
			</g>
		</g>
	</g>
	<g>
		<g>
			<path fill="#B3B3B3" d="M114.556,41.283c-0.002,0-0.003,0-0.004,0c0.001-0.027,0.004-0.064,0.004-0.098
				c0-1.891-1.534-3.424-3.426-3.424c-1.547,0-2.853,1.025-3.279,2.432c-0.257-0.121-0.546-0.19-0.851-0.19
				c-1.102,0-1.996,0.895-1.996,1.996c0,0.256,0.049,0.498,0.136,0.721c-0.022-0.002-0.045-0.004-0.066-0.004
				c-0.706,0-1.28,0.574-1.28,1.281c0,0.705,0.574,1.279,1.28,1.279h9.482c1.102,0,1.995-0.893,1.995-1.996
				C116.551,42.178,115.657,41.283,114.556,41.283z"/>
		</g>
		<g>
			<path fill="#FFFFFF" d="M120.408,45.043c-0.002,0-0.003,0-0.003,0c0-0.029,0.003-0.064,0.003-0.1
				c0-1.891-1.534-3.424-3.426-3.424c-1.546,0-2.854,1.025-3.278,2.432c-0.259-0.119-0.546-0.189-0.851-0.189
				c-1.102,0-1.998,0.893-1.998,1.996c0,0.256,0.05,0.498,0.137,0.721c-0.022,0-0.044-0.004-0.066-0.004
				c-0.706,0-1.279,0.572-1.279,1.281c0,0.705,0.573,1.279,1.279,1.279h9.482c1.102,0,1.995-0.893,1.995-1.996
				S121.51,45.043,120.408,45.043z"/>
		</g>
	</g>
	<g>
		<g>
			<path fill="#B3B3B3" d="M54.217,52.549c-0.001,0-0.002,0-0.004,0c0.002-0.029,0.004-0.066,0.004-0.1
				c0-1.891-1.534-3.426-3.426-3.426c-1.546,0-2.853,1.027-3.278,2.434c-0.258-0.121-0.546-0.189-0.851-0.189
				c-1.102,0-1.998,0.893-1.998,1.996c0,0.256,0.051,0.496,0.136,0.721c-0.021-0.002-0.043-0.002-0.065-0.002
				c-0.706,0-1.279,0.57-1.279,1.277c0,0.707,0.573,1.281,1.279,1.281h9.482c1.102,0,1.995-0.895,1.995-1.996
				C56.212,53.441,55.318,52.549,54.217,52.549z"/>
		</g>
		<g>
			<path fill="#FFFFFF" d="M60.069,56.307c-0.001,0-0.002,0-0.004,0c0.002-0.029,0.004-0.066,0.004-0.098
				c0-1.893-1.534-3.426-3.425-3.426c-1.547,0-2.854,1.025-3.279,2.432c-0.257-0.119-0.546-0.19-0.851-0.19
				c-1.102,0-1.998,0.895-1.998,1.996c0,0.256,0.05,0.498,0.137,0.721c-0.022-0.002-0.045-0.004-0.066-0.004
				c-0.707,0-1.279,0.574-1.279,1.281c0,0.705,0.572,1.279,1.279,1.279h9.482c1.103,0,1.996-0.895,1.996-1.996
				C62.065,57.199,61.172,56.307,60.069,56.307z"/>
		</g>
	</g>
</g>
</svg>
